<svg width="30" height="30" viewBox="0 0 30 30" fill="none" xmlns="http://www.w3.org/2000/svg">
<path d="M16.25 22.5H6.25C5.5 22.5 5 22 5 21.25C5 20.5 5.5 20 6.25 20H16.25C17 20 17.5 20.5 17.5 21.25C17.5 22 17 22.5 16.25 22.5Z" fill="black"/>
<path d="M23.75 16.25H6.25C5.5 16.25 5 15.75 5 15C5 14.25 5.5 13.75 6.25 13.75H23.75C24.5 13.75 25 14.25 25 15C25 15.75 24.5 16.25 23.75 16.25Z" fill="black"/>
<path d="M23.75 10H13.75C13 10 12.5 9.5 12.5 8.75C12.5 8 13 7.5 13.75 7.5H23.75C24.5 7.5 25 8 25 8.75C25 9.5 24.5 10 23.75 10Z" fill="black"/>
</svg>
